HIERARCHY
ROOT Hips
{
    OFFSET 0.0 0.0 0.0
    CHANNELS 6 Xposition Yposition Zposition Zrotation Xrotation Yrotation
    JOINT Spine
    {
        OFFSET 0.0 5.0 0.0
        CHANNELS 3 Zrotation Xrotation Yrotation
        JOINT Chest
        {
            OFFSET 0.0 5.0 0.0
            CHANNELS 3 Zrotation Xrotation Yrotation
            JOINT Neck
            {
                OFFSET 0.0 8.0 0.0
                CHANNELS 3 Zrotation Xrotation Yrotation
                JOINT Head
                {
                    OFFSET 0.0 5.0 0.0
                    CHANNELS 3 Zrotation Xrotation Yrotation
                    End Site
                    {
                        OFFSET 0.0 3.0 0.0
                    }
                }
            }
            JOINT LeftShoulder
            {
                OFFSET -5.0 0.0 0.0
                CHANNELS 3 Zrotation Xrotation Yrotation
                JOINT LeftArm
                {
                    OFFSET 0.0 -10.0 0.0
                    CHANNELS 3 Zrotation Xrotation Yrotation
                    JOINT LeftForeArm
                    {
                        OFFSET 0.0 -10.0 0.0
                        CHANNELS 3 Zrotation Xrotation Yrotation
                        End Site
                        {
                            OFFSET 0.0 -3.0 0.0
                        }
                    }
                }
            }
        }
    }
}

MOTION
Frames: 14
Frame Time: 0.033333
970.000000 442.938926 122.810343 0.000000 0.000000 0.000000 0.000000 0.000000 0.000000 29.678605 -18.735118 0.000000 180.000000 10.040465 0.000000 29.744881 -8.621815 -0.000000 150.255119 23.395423 30.000000 19.983107 -12.856735 0.000000 18.000000 0.693788 0.000000
1354.522934 467.411410 132.625096 0.000000 0.000000 0.000000 0.000000 0.000000 0.000000 150.622570 -5.553603 4.973798 -29.377430 8.236398 4.973798 140.176400 -5.483823 3.759997 -12.221629 2.578586 29.763441 132.794256 0.068409 -3.759997 -2.626015 -0.644773 0.313953
969.997807 442.887864 120.979128 0.000000 0.000000 0.000000 0.000000 0.000000 0.000000 31.061399 -5.969328 9.635073 180.000000 14.328757 9.635073 30.285790 -9.356757 7.460697 149.714210 1.326254 29.057495 19.151579 7.211965 -7.460697 18.000000 -0.546654 0.626666
1246.736984 514.278152 112.804821 0.000000 0.000000 0.000000 0.000000 0.000000 0.000000 143.557092 3.547675 13.690942 -36.442908 -3.658595 13.690942 133.761037 1.932820 11.043737 -156.950665 -5.742382 27.893295 0.000000 0.000000 0.000000 1.928484 0.479755 0.936907
1245.221100 458.637464 112.828935 0.000000 0.000000 0.000000 0.000000 0.000000 0.000000 160.701064 14.217666 16.886559 -19.298936 -6.963893 16.886559 140.193827 0.023372 14.452610 -157.554825 -5.622519 26.289200 29.500467 5.167469 -14.452610 -15.049953 -0.516747 1.243449
1257.365570 418.514181 107.280722 0.000000 0.000000 0.000000 0.000000 0.000000 0.000000 -143.710676 -5.642052 19.021130 36.289324 2.762696 19.021130 163.220413 -2.401599 17.633558 11.688054 0.025148 24.270510 152.038385 0.180377 -17.633558 -2.339948 0.138294 1.545085
1275.099564 408.163741 97.785963 0.000000 0.000000 0.000000 0.000000 0.000000 0.000000 -132.929531 -14.050469 19.960535 47.070469 13.166527 19.960535 173.491912 -1.872535 20.536413 -160.709681 -4.707014 21.869059 33.138793 4.346617 -20.536413 -14.686121 -0.434662 1.840623
1290.611115 384.880857 92.415246 0.000000 0.000000 0.000000 0.000000 0.000000 0.000000 -132.705235 -3.848263 19.645745 47.294765 4.637434 19.645745 -173.778854 -2.057372 23.115397 20.496835 7.802944 19.122720 -161.220290 -4.460398 -23.115397 1.723235 0.363613 2.128896
1302.817154 380.305352 94.715947 0.000000 0.000000 0.000000 0.000000 0.000000 0.000000 -131.493915 1.937244 18.096541 48.506085 2.119978 18.096541 -165.393697 -0.200439 25.329838 23.154815 1.283639 16.074804 -178.200316 -1.336491 -25.329838 0.138141 0.015863 2.408768
1304.997711 379.563582 93.851286 0.000000 0.000000 0.000000 0.000000 0.000000 0.000000 -126.727972 4.180712 15.410265 53.272028 1.410905 15.410265 -160.219593 -1.085391 27.144812 28.448880 -2.531534 12.773379 -174.368770 0.871013 -27.144812 0.079526 -0.118657 2.679134
1311.668472 386.890390 68.702027 0.000000 0.000000 0.000000 0.000000 0.000000 0.000000 -122.308728 0.239425 11.755705 57.691272 16.519727 11.755705 -158.801130 0.126203 28.531695 150.942637 3.182748 9.270510 -154.878332 -4.382836 -28.531695 2.695409 0.535841 2.938926
1305.131836 395.180186 69.842280 0.000000 0.000000 0.000000 0.000000 0.000000 0.000000 -125.112810 5.805554 7.362491 54.887190 -4.285507 7.362491 -146.487292 -3.781248 29.468618 -175.167369 -5.401485 5.621439 -159.224034 -3.844236 -29.468618 1.782042 0.472328 3.187120
1296.320457 392.734526 69.000146 0.000000 0.000000 0.000000 0.000000 0.000000 0.000000 -131.035750 9.411343 2.506665 48.964250 -10.714542 2.506665 -128.969563 1.541096 29.940802 38.856147 -7.089995 1.883716 -134.776850 -0.489251 -29.940802 3.458429 0.127381 3.422736
1306.963577 386.612041 72.759303 0.000000 0.000000 0.000000 0.000000 0.000000 0.000000 -124.469622 -0.329140 -2.506665 55.530378 1.375386 -2.506665 -109.994856 0.358023 29.940802 37.691309 2.442149 -1.883716 -118.274788 1.592335 -29.940802 5.098336 -0.107903 3.644843
